<?xml version="1.0" encoding="UTF-8" standalone="no"?>
<!DOCTYPE svg PUBLIC "-//W3C//DTD SVG 1.1//EN"
 "http://www.w3.org/Graphics/SVG/1.1/DTD/svg11.dtd">
<!-- Generated by graphviz version 2.47.3 (20210619.1520)
 -->
<!-- Title: dependencies Pages: 1 -->
<svg width="1024pt" height="247pt"
 viewBox="0.00 0.00 1024.00 246.80" xmlns="http://www.w3.org/2000/svg" xmlns:xlink="http://www.w3.org/1999/xlink">
<g id="graph0" class="graph" transform="scale(1 1) rotate(0) translate(4 242.8)">
<title>dependencies</title>
<polygon fill="white" stroke="transparent" points="-4,4 -4,-242.8 1020,-242.8 1020,4 -4,4"/>
<text text-anchor="middle" x="508" y="-8.2" font-family="sans-serif" font-size="14.00">dependencies</text>
<g id="clust1" class="cluster">
<title>cluster_ThumbnailModule</title>
<polygon fill="none" stroke="black" stroke-dasharray="1,5" points="8,-32.8 8,-230.8 1008,-230.8 1008,-32.8 8,-32.8"/>
</g>
<g id="clust2" class="cluster">
<title>cluster_ThumbnailModule_declarations</title>
<polygon fill="none" stroke="black" points="340,-40.8 340,-92.8 1000,-92.8 1000,-40.8 340,-40.8"/>
</g>
<g id="clust10" class="cluster">
<title>cluster_ThumbnailModule_providers</title>
<polygon fill="none" stroke="black" points="154,-40.8 154,-92.8 332,-92.8 332,-40.8 154,-40.8"/>
</g>
<g id="clust7" class="cluster">
<title>cluster_ThumbnailModule_imports</title>
<polygon fill="none" stroke="black" points="16,-40.8 16,-92.8 146,-92.8 146,-40.8 16,-40.8"/>
</g>
<g id="clust8" class="cluster">
<title>cluster_ThumbnailModule_exports</title>
<polygon fill="none" stroke="black" points="161,-170.8 161,-222.8 835,-222.8 835,-170.8 161,-170.8"/>
</g>
<!-- SeriesItemComponent -->
<g id="node1" class="node">
<title>SeriesItemComponent</title>
<polygon fill="#ffffb3" stroke="black" points="991.7,-84.8 850.3,-84.8 850.3,-48.8 991.7,-48.8 991.7,-84.8"/>
<text text-anchor="middle" x="921" y="-62.6" font-family="Times,serif" font-size="14.00">SeriesItemComponent</text>
</g>
<!-- ThumbnailModule -->
<g id="node5" class="node">
<title>ThumbnailModule</title>
<polygon fill="#8dd3c7" stroke="black" points="572.49,-149.8 569.49,-153.8 548.49,-153.8 545.49,-149.8 451.51,-149.8 451.51,-113.8 572.49,-113.8 572.49,-149.8"/>
<text text-anchor="middle" x="512" y="-127.6" font-family="Times,serif" font-size="14.00">ThumbnailModule</text>
</g>
<!-- SeriesItemComponent&#45;&gt;ThumbnailModule -->
<g id="edge1" class="edge">
<title>SeriesItemComponent&#45;&gt;ThumbnailModule</title>
<path fill="none" stroke="black" d="M921,-84.91C921,-104.14 921,-131.8 921,-131.8 921,-131.8 582.79,-131.8 582.79,-131.8"/>
<polygon fill="black" stroke="black" points="582.79,-128.3 572.79,-131.8 582.79,-135.3 582.79,-128.3"/>
</g>
<!-- SeriesListComponent -->
<g id="node2" class="node">
<title>SeriesListComponent</title>
<polygon fill="#ffffb3" stroke="black" points="832.82,-84.8 695.18,-84.8 695.18,-48.8 832.82,-48.8 832.82,-84.8"/>
<text text-anchor="middle" x="764" y="-62.6" font-family="Times,serif" font-size="14.00">SeriesListComponent</text>
</g>
<!-- SeriesListComponent&#45;&gt;ThumbnailModule -->
<g id="edge2" class="edge">
<title>SeriesListComponent&#45;&gt;ThumbnailModule</title>
<path fill="none" stroke="black" d="M761.34,-84.83C761.34,-101.2 761.34,-122.8 761.34,-122.8 761.34,-122.8 582.68,-122.8 582.68,-122.8"/>
<polygon fill="black" stroke="black" points="582.68,-119.3 572.68,-122.8 582.68,-126.3 582.68,-119.3"/>
</g>
<!-- ThumbItemComponent -->
<g id="node3" class="node">
<title>ThumbItemComponent</title>
<polygon fill="#ffffb3" stroke="black" points="677.93,-84.8 530.07,-84.8 530.07,-48.8 677.93,-48.8 677.93,-84.8"/>
<text text-anchor="middle" x="604" y="-62.6" font-family="Times,serif" font-size="14.00">ThumbItemComponent</text>
</g>
<!-- ThumbItemComponent&#45;&gt;ThumbnailModule -->
<g id="edge3" class="edge">
<title>ThumbItemComponent&#45;&gt;ThumbnailModule</title>
<path fill="none" stroke="black" d="M551.39,-84.91C551.39,-84.91 551.39,-103.79 551.39,-103.79"/>
<polygon fill="black" stroke="black" points="547.89,-103.79 551.39,-113.79 554.89,-103.79 547.89,-103.79"/>
</g>
<!-- ThumbnailListComponent -->
<g id="node4" class="node">
<title>ThumbnailListComponent</title>
<polygon fill="#ffffb3" stroke="black" points="512.05,-84.8 347.95,-84.8 347.95,-48.8 512.05,-48.8 512.05,-84.8"/>
<text text-anchor="middle" x="430" y="-62.6" font-family="Times,serif" font-size="14.00">ThumbnailListComponent</text>
</g>
<!-- ThumbnailListComponent&#45;&gt;ThumbnailModule -->
<g id="edge4" class="edge">
<title>ThumbnailListComponent&#45;&gt;ThumbnailModule</title>
<path fill="none" stroke="black" d="M481.89,-84.91C481.89,-84.91 481.89,-103.79 481.89,-103.79"/>
<polygon fill="black" stroke="black" points="478.39,-103.79 481.89,-113.79 485.39,-103.79 478.39,-103.79"/>
</g>
<!-- SeriesItemComponent  -->
<g id="node7" class="node">
<title>SeriesItemComponent </title>
<polygon fill="#fb8072" stroke="black" points="827.2,-214.8 682.8,-214.8 682.8,-178.8 827.2,-178.8 827.2,-214.8"/>
<text text-anchor="middle" x="755" y="-192.6" font-family="Times,serif" font-size="14.00">SeriesItemComponent </text>
</g>
<!-- ThumbnailModule&#45;&gt;SeriesItemComponent  -->
<g id="edge6" class="edge">
<title>ThumbnailModule&#45;&gt;SeriesItemComponent </title>
<path fill="none" stroke="black" stroke-dasharray="5,2" d="M572.91,-140.8C624.11,-140.8 689,-140.8 689,-140.8 689,-140.8 689,-168.77 689,-168.77"/>
<polygon fill="black" stroke="black" points="685.5,-168.77 689,-178.77 692.5,-168.77 685.5,-168.77"/>
</g>
<!-- SeriesListComponent  -->
<g id="node8" class="node">
<title>SeriesListComponent </title>
<polygon fill="#fb8072" stroke="black" points="664.32,-214.8 523.68,-214.8 523.68,-178.8 664.32,-178.8 664.32,-214.8"/>
<text text-anchor="middle" x="594" y="-192.6" font-family="Times,serif" font-size="14.00">SeriesListComponent </text>
</g>
<!-- ThumbnailModule&#45;&gt;SeriesListComponent  -->
<g id="edge7" class="edge">
<title>ThumbnailModule&#45;&gt;SeriesListComponent </title>
<path fill="none" stroke="black" stroke-dasharray="5,2" d="M548.04,-149.91C548.04,-149.91 548.04,-168.79 548.04,-168.79"/>
<polygon fill="black" stroke="black" points="544.54,-168.79 548.04,-178.79 551.54,-168.79 544.54,-168.79"/>
</g>
<!-- ThumbItemComponent  -->
<g id="node9" class="node">
<title>ThumbItemComponent </title>
<polygon fill="#fb8072" stroke="black" points="505.43,-214.8 354.57,-214.8 354.57,-178.8 505.43,-178.8 505.43,-214.8"/>
<text text-anchor="middle" x="430" y="-192.6" font-family="Times,serif" font-size="14.00">ThumbItemComponent </text>
</g>
<!-- ThumbnailModule&#45;&gt;ThumbItemComponent  -->
<g id="edge8" class="edge">
<title>ThumbnailModule&#45;&gt;ThumbItemComponent </title>
<path fill="none" stroke="black" stroke-dasharray="5,2" d="M478.49,-149.91C478.49,-149.91 478.49,-168.79 478.49,-168.79"/>
<polygon fill="black" stroke="black" points="474.99,-168.79 478.49,-178.79 481.99,-168.79 474.99,-168.79"/>
</g>
<!-- ThumbnailListComponent  -->
<g id="node10" class="node">
<title>ThumbnailListComponent </title>
<polygon fill="#fb8072" stroke="black" points="337.05,-214.8 168.95,-214.8 168.95,-178.8 337.05,-178.8 337.05,-214.8"/>
<text text-anchor="middle" x="253" y="-192.6" font-family="Times,serif" font-size="14.00">ThumbnailListComponent </text>
</g>
<!-- ThumbnailModule&#45;&gt;ThumbnailListComponent  -->
<g id="edge9" class="edge">
<title>ThumbnailModule&#45;&gt;ThumbnailListComponent </title>
<path fill="none" stroke="black" stroke-dasharray="5,2" d="M451.36,-140.8C398.64,-140.8 330.65,-140.8 330.65,-140.8 330.65,-140.8 330.65,-168.77 330.65,-168.77"/>
<polygon fill="black" stroke="black" points="327.16,-168.77 330.65,-178.77 334.16,-168.77 327.16,-168.77"/>
</g>
<!-- AngularMaterials -->
<g id="node6" class="node">
<title>AngularMaterials</title>
<polygon fill="#8dd3c7" stroke="black" points="138.24,-84.8 135.24,-88.8 114.24,-88.8 111.24,-84.8 23.76,-84.8 23.76,-48.8 138.24,-48.8 138.24,-84.8"/>
<text text-anchor="middle" x="81" y="-62.6" font-family="Times,serif" font-size="14.00">AngularMaterials</text>
</g>
<!-- AngularMaterials&#45;&gt;ThumbnailModule -->
<g id="edge5" class="edge">
<title>AngularMaterials&#45;&gt;ThumbnailModule</title>
<path fill="none" stroke="black" d="M81,-84.91C81,-104.14 81,-131.8 81,-131.8 81,-131.8 441.16,-131.8 441.16,-131.8"/>
<polygon fill="black" stroke="black" points="441.16,-135.3 451.16,-131.8 441.16,-128.3 441.16,-135.3"/>
</g>
<!-- SeriesItemService -->
<g id="node11" class="node">
<title>SeriesItemService</title>
<ellipse fill="#fdb462" stroke="black" cx="243" cy="-66.8" rx="81.07" ry="18"/>
<text text-anchor="middle" x="243" y="-62.6" font-family="Times,serif" font-size="14.00">SeriesItemService</text>
</g>
<!-- SeriesItemService&#45;&gt;ThumbnailModule -->
<g id="edge10" class="edge">
<title>SeriesItemService&#45;&gt;ThumbnailModule</title>
<path fill="none" stroke="black" d="M246.63,-84.83C246.63,-101.2 246.63,-122.8 246.63,-122.8 246.63,-122.8 441.45,-122.8 441.45,-122.8"/>
<polygon fill="black" stroke="black" points="441.45,-126.3 451.45,-122.8 441.45,-119.3 441.45,-126.3"/>
</g>
</g>
</svg>
