<?xml version="1.0" encoding="UTF-8" standalone="no"?>
<!DOCTYPE svg PUBLIC "-//W3C//DTD SVG 1.1//EN"
 "http://www.w3.org/Graphics/SVG/1.1/DTD/svg11.dtd">
<!-- Generated by graphviz version 2.47.3 (20210619.1520)
 -->
<!-- Title: dependencies Pages: 1 -->
<svg width="794pt" height="247pt"
 viewBox="0.00 0.00 794.00 246.80" xmlns="http://www.w3.org/2000/svg" xmlns:xlink="http://www.w3.org/1999/xlink">
<g id="graph0" class="graph" transform="scale(1 1) rotate(0) translate(4 242.8)">
<title>dependencies</title>
<polygon fill="white" stroke="transparent" points="-4,4 -4,-242.8 790,-242.8 790,4 -4,4"/>
<text text-anchor="middle" x="393" y="-8.2" font-family="sans-serif" font-size="14.00">dependencies</text>
<g id="clust1" class="cluster">
<title>cluster_GridModule</title>
<polygon fill="none" stroke="black" stroke-dasharray="1,5" points="8,-32.8 8,-230.8 778,-230.8 778,-32.8 8,-32.8"/>
</g>
<g id="clust7" class="cluster">
<title>cluster_GridModule_imports</title>
<polygon fill="none" stroke="black" points="640,-40.8 640,-92.8 770,-92.8 770,-40.8 640,-40.8"/>
</g>
<g id="clust8" class="cluster">
<title>cluster_GridModule_exports</title>
<polygon fill="none" stroke="black" points="162,-170.8 162,-222.8 638,-222.8 638,-170.8 162,-170.8"/>
</g>
<g id="clust2" class="cluster">
<title>cluster_GridModule_declarations</title>
<polygon fill="none" stroke="black" points="16,-40.8 16,-92.8 632,-92.8 632,-40.8 16,-40.8"/>
</g>
<!-- GridComponent -->
<g id="node1" class="node">
<title>GridComponent</title>
<polygon fill="#ffffb3" stroke="black" points="624.49,-84.8 517.51,-84.8 517.51,-48.8 624.49,-48.8 624.49,-84.8"/>
<text text-anchor="middle" x="571" y="-62.6" font-family="Times,serif" font-size="14.00">GridComponent</text>
</g>
<!-- GridModule -->
<g id="node5" class="node">
<title>GridModule</title>
<polygon fill="#8dd3c7" stroke="black" points="462.71,-149.8 459.71,-153.8 438.71,-153.8 435.71,-149.8 377.29,-149.8 377.29,-113.8 462.71,-113.8 462.71,-149.8"/>
<text text-anchor="middle" x="420" y="-127.6" font-family="Times,serif" font-size="14.00">GridModule</text>
</g>
<!-- GridComponent&#45;&gt;GridModule -->
<g id="edge1" class="edge">
<title>GridComponent&#45;&gt;GridModule</title>
<path fill="none" stroke="black" d="M589.58,-84.83C589.58,-101.2 589.58,-122.8 589.58,-122.8 589.58,-122.8 472.79,-122.8 472.79,-122.8"/>
<polygon fill="black" stroke="black" points="472.79,-119.3 462.79,-122.8 472.79,-126.3 472.79,-119.3"/>
</g>
<!-- GridTemplateComponent -->
<g id="node2" class="node">
<title>GridTemplateComponent</title>
<polygon fill="#ffffb3" stroke="black" points="499.86,-84.8 340.14,-84.8 340.14,-48.8 499.86,-48.8 499.86,-84.8"/>
<text text-anchor="middle" x="420" y="-62.6" font-family="Times,serif" font-size="14.00">GridTemplateComponent</text>
</g>
<!-- GridTemplateComponent&#45;&gt;GridModule -->
<g id="edge2" class="edge">
<title>GridTemplateComponent&#45;&gt;GridModule</title>
<path fill="none" stroke="black" d="M420,-84.91C420,-84.91 420,-103.79 420,-103.79"/>
<polygon fill="black" stroke="black" points="416.5,-103.79 420,-113.79 423.5,-103.79 416.5,-103.79"/>
</g>
<!-- GridTemplateDirective -->
<g id="node3" class="node">
<title>GridTemplateDirective</title>
<polygon fill="#ffffb3" stroke="black" points="322.11,-84.8 175.89,-84.8 175.89,-48.8 322.11,-48.8 322.11,-84.8"/>
<text text-anchor="middle" x="249" y="-62.6" font-family="Times,serif" font-size="14.00">GridTemplateDirective</text>
</g>
<!-- GridTemplateDirective&#45;&gt;GridModule -->
<g id="edge3" class="edge">
<title>GridTemplateDirective&#45;&gt;GridModule</title>
<path fill="none" stroke="black" d="M271.93,-84.83C271.93,-101.2 271.93,-122.8 271.93,-122.8 271.93,-122.8 367.17,-122.8 367.17,-122.8"/>
<polygon fill="black" stroke="black" points="367.17,-126.3 377.17,-122.8 367.17,-119.3 367.17,-126.3"/>
</g>
<!-- SelectColorDirective -->
<g id="node4" class="node">
<title>SelectColorDirective</title>
<polygon fill="#ffffb3" stroke="black" points="158.18,-84.8 23.82,-84.8 23.82,-48.8 158.18,-48.8 158.18,-84.8"/>
<text text-anchor="middle" x="91" y="-62.6" font-family="Times,serif" font-size="14.00">SelectColorDirective</text>
</g>
<!-- SelectColorDirective&#45;&gt;GridModule -->
<g id="edge4" class="edge">
<title>SelectColorDirective&#45;&gt;GridModule</title>
<path fill="none" stroke="black" d="M91,-84.91C91,-104.14 91,-131.8 91,-131.8 91,-131.8 367.33,-131.8 367.33,-131.8"/>
<polygon fill="black" stroke="black" points="367.33,-135.3 377.33,-131.8 367.33,-128.3 367.33,-135.3"/>
</g>
<!-- GridComponent  -->
<g id="node7" class="node">
<title>GridComponent </title>
<polygon fill="#fb8072" stroke="black" points="630.49,-214.8 519.51,-214.8 519.51,-178.8 630.49,-178.8 630.49,-214.8"/>
<text text-anchor="middle" x="575" y="-192.6" font-family="Times,serif" font-size="14.00">GridComponent </text>
</g>
<!-- GridModule&#45;&gt;GridComponent  -->
<g id="edge6" class="edge">
<title>GridModule&#45;&gt;GridComponent </title>
<path fill="none" stroke="black" stroke-dasharray="5,2" d="M462.61,-140.8C502.06,-140.8 554.67,-140.8 554.67,-140.8 554.67,-140.8 554.67,-168.77 554.67,-168.77"/>
<polygon fill="black" stroke="black" points="551.17,-168.77 554.67,-178.77 558.17,-168.77 551.17,-168.77"/>
</g>
<!-- GridTemplateComponent  -->
<g id="node8" class="node">
<title>GridTemplateComponent </title>
<polygon fill="#fb8072" stroke="black" points="501.86,-214.8 338.14,-214.8 338.14,-178.8 501.86,-178.8 501.86,-214.8"/>
<text text-anchor="middle" x="420" y="-192.6" font-family="Times,serif" font-size="14.00">GridTemplateComponent </text>
</g>
<!-- GridModule&#45;&gt;GridTemplateComponent  -->
<g id="edge7" class="edge">
<title>GridModule&#45;&gt;GridTemplateComponent </title>
<path fill="none" stroke="black" stroke-dasharray="5,2" d="M420,-149.91C420,-149.91 420,-168.79 420,-168.79"/>
<polygon fill="black" stroke="black" points="416.5,-168.79 420,-178.79 423.5,-168.79 416.5,-168.79"/>
</g>
<!-- GridTemplateDirective  -->
<g id="node9" class="node">
<title>GridTemplateDirective </title>
<polygon fill="#fb8072" stroke="black" points="320.11,-214.8 169.89,-214.8 169.89,-178.8 320.11,-178.8 320.11,-214.8"/>
<text text-anchor="middle" x="245" y="-192.6" font-family="Times,serif" font-size="14.00">GridTemplateDirective </text>
</g>
<!-- GridModule&#45;&gt;GridTemplateDirective  -->
<g id="edge8" class="edge">
<title>GridModule&#45;&gt;GridTemplateDirective </title>
<path fill="none" stroke="black" stroke-dasharray="5,2" d="M376.95,-140.8C319.2,-140.8 223.82,-140.8 223.82,-140.8 223.82,-140.8 223.82,-168.77 223.82,-168.77"/>
<polygon fill="black" stroke="black" points="220.32,-168.77 223.82,-178.77 227.32,-168.77 220.32,-168.77"/>
</g>
<!-- AngularMaterials -->
<g id="node6" class="node">
<title>AngularMaterials</title>
<polygon fill="#8dd3c7" stroke="black" points="762.24,-84.8 759.24,-88.8 738.24,-88.8 735.24,-84.8 647.76,-84.8 647.76,-48.8 762.24,-48.8 762.24,-84.8"/>
<text text-anchor="middle" x="705" y="-62.6" font-family="Times,serif" font-size="14.00">AngularMaterials</text>
</g>
<!-- AngularMaterials&#45;&gt;GridModule -->
<g id="edge5" class="edge">
<title>AngularMaterials&#45;&gt;GridModule</title>
<path fill="none" stroke="black" d="M705,-84.91C705,-104.14 705,-131.8 705,-131.8 705,-131.8 472.67,-131.8 472.67,-131.8"/>
<polygon fill="black" stroke="black" points="472.67,-128.3 462.67,-131.8 472.67,-135.3 472.67,-128.3"/>
</g>
</g>
</svg>
