<?xml version="1.0" encoding="UTF-8" standalone="no"?>
<!DOCTYPE svg PUBLIC "-//W3C//DTD SVG 1.1//EN"
 "http://www.w3.org/Graphics/SVG/1.1/DTD/svg11.dtd">
<!-- Generated by graphviz version 2.47.3 (20210619.1520)
 -->
<!-- Title: dependencies Pages: 1 -->
<svg width="669pt" height="247pt"
 viewBox="0.00 0.00 669.00 246.80" xmlns="http://www.w3.org/2000/svg" xmlns:xlink="http://www.w3.org/1999/xlink">
<g id="graph0" class="graph" transform="scale(1 1) rotate(0) translate(4 242.8)">
<title>dependencies</title>
<polygon fill="white" stroke="transparent" points="-4,4 -4,-242.8 665,-242.8 665,4 -4,4"/>
<text text-anchor="middle" x="330.5" y="-8.2" font-family="sans-serif" font-size="14.00">dependencies</text>
<g id="clust1" class="cluster">
<title>cluster_AppModule</title>
<polygon fill="none" stroke="black" stroke-dasharray="1,5" points="8,-32.8 8,-230.8 653,-230.8 653,-32.8 8,-32.8"/>
</g>
<g id="clust6" class="cluster">
<title>cluster_AppModule_bootstrap</title>
<polygon fill="none" stroke="black" points="273,-170.8 273,-222.8 397,-222.8 397,-170.8 273,-170.8"/>
</g>
<g id="clust4" class="cluster">
<title>cluster_AppModule_imports</title>
<polygon fill="none" stroke="black" points="146,-40.8 146,-92.8 645,-92.8 645,-40.8 146,-40.8"/>
</g>
<g id="clust2" class="cluster">
<title>cluster_AppModule_declarations</title>
<polygon fill="none" stroke="black" points="16,-40.8 16,-92.8 138,-92.8 138,-40.8 16,-40.8"/>
</g>
<!-- AppComponent -->
<g id="node1" class="node">
<title>AppComponent</title>
<polygon fill="#ffffb3" stroke="black" points="129.94,-84.8 24.06,-84.8 24.06,-48.8 129.94,-48.8 129.94,-84.8"/>
<text text-anchor="middle" x="77" y="-62.6" font-family="Times,serif" font-size="14.00">AppComponent</text>
</g>
<!-- AppModule -->
<g id="node2" class="node">
<title>AppModule</title>
<polygon fill="#8dd3c7" stroke="black" points="376.66,-149.8 373.66,-153.8 352.66,-153.8 349.66,-149.8 293.34,-149.8 293.34,-113.8 376.66,-113.8 376.66,-149.8"/>
<text text-anchor="middle" x="335" y="-127.6" font-family="Times,serif" font-size="14.00">AppModule</text>
</g>
<!-- AppComponent&#45;&gt;AppModule -->
<g id="edge1" class="edge">
<title>AppComponent&#45;&gt;AppModule</title>
<path fill="none" stroke="black" d="M77,-85.08C77,-106.12 77,-137.8 77,-137.8 77,-137.8 283.26,-137.8 283.26,-137.8"/>
<polygon fill="black" stroke="black" points="283.26,-141.3 293.26,-137.8 283.26,-134.3 283.26,-141.3"/>
</g>
<!-- AppComponent  -->
<g id="node7" class="node">
<title>AppComponent </title>
<polygon fill="#80b1d3" stroke="black" points="389.44,-214.8 280.56,-214.8 280.56,-178.8 389.44,-178.8 389.44,-214.8"/>
<text text-anchor="middle" x="335" y="-192.6" font-family="Times,serif" font-size="14.00">AppComponent </text>
</g>
<!-- AppModule&#45;&gt;AppComponent  -->
<g id="edge6" class="edge">
<title>AppModule&#45;&gt;AppComponent </title>
<path fill="none" stroke="black" stroke-dasharray="1,5" d="M335,-149.91C335,-149.91 335,-168.79 335,-168.79"/>
<polygon fill="black" stroke="black" points="331.5,-168.79 335,-178.79 338.5,-168.79 331.5,-168.79"/>
</g>
<!-- AngularMaterials -->
<g id="node3" class="node">
<title>AngularMaterials</title>
<polygon fill="#8dd3c7" stroke="black" points="637.24,-84.8 634.24,-88.8 613.24,-88.8 610.24,-84.8 522.76,-84.8 522.76,-48.8 637.24,-48.8 637.24,-84.8"/>
<text text-anchor="middle" x="580" y="-62.6" font-family="Times,serif" font-size="14.00">AngularMaterials</text>
</g>
<!-- AngularMaterials&#45;&gt;AppModule -->
<g id="edge2" class="edge">
<title>AngularMaterials&#45;&gt;AppModule</title>
<path fill="none" stroke="black" d="M580,-85.08C580,-106.12 580,-137.8 580,-137.8 580,-137.8 386.84,-137.8 386.84,-137.8"/>
<polygon fill="black" stroke="black" points="386.84,-134.3 376.84,-137.8 386.84,-141.3 386.84,-134.3"/>
</g>
<!-- CarouselModule -->
<g id="node4" class="node">
<title>CarouselModule</title>
<polygon fill="#8dd3c7" stroke="black" points="504.81,-84.8 501.81,-88.8 480.81,-88.8 477.81,-84.8 395.19,-84.8 395.19,-48.8 504.81,-48.8 504.81,-84.8"/>
<text text-anchor="middle" x="450" y="-62.6" font-family="Times,serif" font-size="14.00">CarouselModule</text>
</g>
<!-- CarouselModule&#45;&gt;AppModule -->
<g id="edge3" class="edge">
<title>CarouselModule&#45;&gt;AppModule</title>
<path fill="none" stroke="black" d="M450,-84.82C450,-102.17 450,-125.8 450,-125.8 450,-125.8 386.84,-125.8 386.84,-125.8"/>
<polygon fill="black" stroke="black" points="386.84,-122.3 376.84,-125.8 386.84,-129.3 386.84,-122.3"/>
</g>
<!-- GridModule -->
<g id="node5" class="node">
<title>GridModule</title>
<polygon fill="#8dd3c7" stroke="black" points="377.71,-84.8 374.71,-88.8 353.71,-88.8 350.71,-84.8 292.29,-84.8 292.29,-48.8 377.71,-48.8 377.71,-84.8"/>
<text text-anchor="middle" x="335" y="-62.6" font-family="Times,serif" font-size="14.00">GridModule</text>
</g>
<!-- GridModule&#45;&gt;AppModule -->
<g id="edge4" class="edge">
<title>GridModule&#45;&gt;AppModule</title>
<path fill="none" stroke="black" d="M335,-84.91C335,-84.91 335,-103.79 335,-103.79"/>
<polygon fill="black" stroke="black" points="331.5,-103.79 335,-113.79 338.5,-103.79 331.5,-103.79"/>
</g>
<!-- ThumbnailModule -->
<g id="node6" class="node">
<title>ThumbnailModule</title>
<polygon fill="#8dd3c7" stroke="black" points="274.49,-84.8 271.49,-88.8 250.49,-88.8 247.49,-84.8 153.51,-84.8 153.51,-48.8 274.49,-48.8 274.49,-84.8"/>
<text text-anchor="middle" x="214" y="-62.6" font-family="Times,serif" font-size="14.00">ThumbnailModule</text>
</g>
<!-- ThumbnailModule&#45;&gt;AppModule -->
<g id="edge5" class="edge">
<title>ThumbnailModule&#45;&gt;AppModule</title>
<path fill="none" stroke="black" d="M214,-84.82C214,-102.17 214,-125.8 214,-125.8 214,-125.8 283.02,-125.8 283.02,-125.8"/>
<polygon fill="black" stroke="black" points="283.02,-129.3 293.02,-125.8 283.02,-122.3 283.02,-129.3"/>
</g>
</g>
</svg>
